<svg width="362" height="26" viewBox="0 0 362 26" fill="none" xmlns="http://www.w3.org/2000/svg">
<path opacity="0.2" d="M21 13C21 14.78 20.4722 16.5201 19.4832 18.0001C18.4943 19.4802 17.0887 20.6337 15.4442 21.3149C13.7996 21.9961 11.99 22.1743 10.2442 21.8271C8.49836 21.4798 6.89472 20.6226 5.63604 19.364C4.37737 18.1053 3.5202 16.5016 3.17294 14.7558C2.82567 13.01 3.0039 11.2004 3.68509 9.55585C4.36628 7.91131 5.51983 6.50571 6.99987 5.51677C8.47992 4.52784 10.22 4 12 4C14.387 4 16.6761 4.94821 18.364 6.63604C20.0518 8.32387 21 10.6131 21 13Z" fill="#0FF1F6"/>
<path d="M16.2806 10.2194C16.3504 10.289 16.4057 10.3717 16.4434 10.4628C16.4812 10.5538 16.5006 10.6514 16.5006 10.75C16.5006 10.8486 16.4812 10.9462 16.4434 11.0372C16.4057 11.1283 16.3504 11.211 16.2806 11.2806L11.0306 16.5306C10.961 16.6004 10.8783 16.6557 10.7872 16.6934C10.6962 16.7312 10.5986 16.7506 10.5 16.7506C10.4014 16.7506 10.3038 16.7312 10.2128 16.6934C10.1218 16.6557 10.039 16.6004 9.96938 16.5306L7.71938 14.2806C7.57865 14.1399 7.49959 13.949 7.49959 13.75C7.49959 13.551 7.57865 13.3601 7.71938 13.2194C7.86011 13.0786 8.05098 12.9996 8.25 12.9996C8.44903 12.9996 8.6399 13.0786 8.78063 13.2194L10.5 14.9397L15.2194 10.2194C15.289 10.1496 15.3718 10.0943 15.4628 10.0566C15.5538 10.0188 15.6514 9.99941 15.75 9.99941C15.8486 9.99941 15.9462 10.0188 16.0372 10.0566C16.1283 10.0943 16.211 10.1496 16.2806 10.2194ZM21.75 13C21.75 14.9284 21.1782 16.8134 20.1068 18.4168C19.0355 20.0202 17.5127 21.2699 15.7312 22.0078C13.9496 22.7458 11.9892 22.9389 10.0979 22.5627C8.20656 22.1865 6.46928 21.2579 5.10571 19.8943C3.74215 18.5307 2.81355 16.7934 2.43735 14.9021C2.06114 13.0108 2.25422 11.0504 2.99218 9.26884C3.73013 7.48726 4.97982 5.96452 6.58319 4.89317C8.18657 3.82183 10.0716 3.25 12 3.25C14.585 3.25273 17.0634 4.28084 18.8913 6.10872C20.7192 7.93661 21.7473 10.415 21.75 13ZM20.25 13C20.25 11.3683 19.7662 9.77325 18.8596 8.41655C17.9531 7.05984 16.6646 6.00242 15.1571 5.37799C13.6497 4.75357 11.9909 4.59019 10.3905 4.90852C8.79017 5.22685 7.32016 6.01259 6.16637 7.16637C5.01259 8.32015 4.22685 9.79016 3.90853 11.3905C3.5902 12.9908 3.75358 14.6496 4.378 16.1571C5.00242 17.6646 6.05984 18.9531 7.41655 19.8596C8.77326 20.7661 10.3683 21.25 12 21.25C14.1873 21.2475 16.2843 20.3775 17.8309 18.8309C19.3775 17.2843 20.2475 15.1873 20.25 13Z" fill="#0FF1F6"/>
<path d="M39.32 20L34.64 6H36.7L41 18.92H39.96L44.42 6H46.26L50.62 18.92H49.62L53.98 6H55.88L51.2 20H49.1L45.02 8.02H45.56L41.46 20H39.32ZM61.5858 20.12C60.5191 20.12 59.5724 19.8867 58.7458 19.42C57.9191 18.9533 57.2658 18.3133 56.7858 17.5C56.3058 16.6733 56.0658 15.74 56.0658 14.7C56.0658 13.6467 56.3058 12.7133 56.7858 11.9C57.2658 11.0867 57.9191 10.4533 58.7458 10C59.5724 9.53333 60.5191 9.3 61.5858 9.3C62.6391 9.3 63.5791 9.53333 64.4058 10C65.2458 10.4533 65.8991 11.0867 66.3658 11.9C66.8458 12.7 67.0858 13.6333 67.0858 14.7C67.0858 15.7533 66.8458 16.6867 66.3658 17.5C65.8991 18.3133 65.2458 18.9533 64.4058 19.42C63.5791 19.8867 62.6391 20.12 61.5858 20.12ZM61.5858 18.44C62.2658 18.44 62.8724 18.2867 63.4058 17.98C63.9524 17.6733 64.3791 17.24 64.6858 16.68C64.9924 16.1067 65.1458 15.4467 65.1458 14.7C65.1458 13.94 64.9924 13.2867 64.6858 12.74C64.3791 12.18 63.9524 11.7467 63.4058 11.44C62.8724 11.1333 62.2658 10.98 61.5858 10.98C60.9058 10.98 60.2991 11.1333 59.7658 11.44C59.2324 11.7467 58.8058 12.18 58.4858 12.74C58.1658 13.2867 58.0058 13.94 58.0058 14.7C58.0058 15.4467 58.1658 16.1067 58.4858 16.68C58.8058 17.24 59.2324 17.6733 59.7658 17.98C60.2991 18.2867 60.9058 18.44 61.5858 18.44ZM69.5411 20V9.4H71.3811V12.28L71.2011 11.56C71.4944 10.8267 71.9878 10.2667 72.6811 9.88C73.3744 9.49333 74.2278 9.3 75.2411 9.3V11.16C75.1611 11.1467 75.0811 11.14 75.0011 11.14C74.9344 11.14 74.8678 11.14 74.8011 11.14C73.7744 11.14 72.9611 11.4467 72.3611 12.06C71.7611 12.6733 71.4611 13.56 71.4611 14.72V20H69.5411ZM78.9675 17.44L79.0075 14.98L85.1075 9.4H87.4275L82.7475 14L81.7075 14.88L78.9675 17.44ZM77.4075 20V5.16H79.3275V20H77.4075ZM85.5075 20L81.3475 14.84L82.5875 13.3L87.8675 20H85.5075ZM92.2397 20.12C91.3597 20.12 90.5197 20 89.7197 19.76C88.933 19.52 88.313 19.2267 87.8597 18.88L88.6597 17.36C89.113 17.6667 89.673 17.9267 90.3397 18.14C91.0064 18.3533 91.6864 18.46 92.3797 18.46C93.273 18.46 93.913 18.3333 94.2997 18.08C94.6997 17.8267 94.8997 17.4733 94.8997 17.02C94.8997 16.6867 94.7797 16.4267 94.5397 16.24C94.2997 16.0533 93.9797 15.9133 93.5797 15.82C93.193 15.7267 92.7597 15.6467 92.2797 15.58C91.7997 15.5 91.3197 15.4067 90.8397 15.3C90.3597 15.18 89.9197 15.02 89.5197 14.82C89.1197 14.6067 88.7997 14.32 88.5597 13.96C88.3197 13.5867 88.1997 13.0933 88.1997 12.48C88.1997 11.84 88.3797 11.28 88.7397 10.8C89.0997 10.32 89.6064 9.95333 90.2597 9.7C90.9264 9.43333 91.713 9.3 92.6197 9.3C93.313 9.3 94.013 9.38667 94.7197 9.56C95.4397 9.72 96.0264 9.95333 96.4797 10.26L95.6597 11.78C95.1797 11.46 94.6797 11.24 94.1597 11.12C93.6397 11 93.1197 10.94 92.5997 10.94C91.7597 10.94 91.133 11.08 90.7197 11.36C90.3064 11.6267 90.0997 11.9733 90.0997 12.4C90.0997 12.76 90.2197 13.04 90.4597 13.24C90.713 13.4267 91.033 13.5733 91.4197 13.68C91.8197 13.7867 92.2597 13.88 92.7397 13.96C93.2197 14.0267 93.6997 14.12 94.1797 14.24C94.6597 14.3467 95.093 14.5 95.4797 14.7C95.8797 14.9 96.1997 15.18 96.4397 15.54C96.693 15.9 96.8197 16.38 96.8197 16.98C96.8197 17.62 96.633 18.1733 96.2597 18.64C95.8864 19.1067 95.3597 19.4733 94.6797 19.74C93.9997 19.9933 93.1864 20.12 92.2397 20.12ZM106.43 20L102.49 9.4H104.31L107.81 19H106.95L110.59 9.4H112.21L115.77 19H114.93L118.51 9.4H120.23L116.27 20H114.43L111.09 11.24H111.65L108.27 20H106.43ZM121.979 20V9.4H123.899V20H121.979ZM122.939 7.36C122.565 7.36 122.252 7.24 121.999 7C121.759 6.76 121.639 6.46667 121.639 6.12C121.639 5.76 121.759 5.46 121.999 5.22C122.252 4.98 122.565 4.86 122.939 4.86C123.312 4.86 123.619 4.98 123.859 5.22C124.112 5.44667 124.239 5.73333 124.239 6.08C124.239 6.44 124.119 6.74667 123.879 7C123.639 7.24 123.325 7.36 122.939 7.36ZM131.005 20.12C129.938 20.12 129.111 19.8333 128.525 19.26C127.938 18.6867 127.645 17.8667 127.645 16.8V7.08H129.565V16.72C129.565 17.2933 129.705 17.7333 129.985 18.04C130.278 18.3467 130.691 18.5 131.225 18.5C131.825 18.5 132.325 18.3333 132.725 18L133.325 19.38C133.031 19.6333 132.678 19.82 132.265 19.94C131.865 20.06 131.445 20.12 131.005 20.12ZM125.845 10.98V9.4H132.605V10.98H125.845ZM141.106 9.3C141.972 9.3 142.732 9.46667 143.386 9.8C144.052 10.1333 144.572 10.64 144.946 11.32C145.319 12 145.506 12.86 145.506 13.9V20H143.586V14.12C143.586 13.0933 143.332 12.32 142.826 11.8C142.332 11.28 141.632 11.02 140.726 11.02C140.046 11.02 139.452 11.1533 138.946 11.42C138.439 11.6867 138.046 12.08 137.766 12.6C137.499 13.12 137.366 13.7667 137.366 14.54V20H135.446V5.16H137.366V12.26L136.986 11.5C137.332 10.8067 137.866 10.2667 138.586 9.88C139.306 9.49333 140.146 9.3 141.106 9.3ZM160.61 20V17.76L160.51 17.34V13.52C160.51 12.7067 160.27 12.08 159.79 11.64C159.323 11.1867 158.617 10.96 157.67 10.96C157.043 10.96 156.43 11.0667 155.83 11.28C155.23 11.48 154.723 11.7533 154.31 12.1L153.51 10.66C154.057 10.22 154.71 9.88667 155.47 9.66C156.243 9.42 157.05 9.3 157.89 9.3C159.343 9.3 160.463 9.65333 161.25 10.36C162.037 11.0667 162.43 12.1467 162.43 13.6V20H160.61ZM157.13 20.12C156.343 20.12 155.65 19.9867 155.05 19.72C154.463 19.4533 154.01 19.0867 153.69 18.62C153.37 18.14 153.21 17.6 153.21 17C153.21 16.4267 153.343 15.9067 153.61 15.44C153.89 14.9733 154.337 14.6 154.95 14.32C155.577 14.04 156.417 13.9 157.47 13.9H160.83V15.28H157.55C156.59 15.28 155.943 15.44 155.61 15.76C155.277 16.08 155.11 16.4667 155.11 16.92C155.11 17.44 155.317 17.86 155.73 18.18C156.143 18.4867 156.717 18.64 157.45 18.64C158.17 18.64 158.797 18.48 159.33 18.16C159.877 17.84 160.27 17.3733 160.51 16.76L160.89 18.08C160.637 18.7067 160.19 19.2067 159.55 19.58C158.91 19.94 158.103 20.12 157.13 20.12ZM165.783 20V5.16H167.703V20H165.783ZM171.169 20V5.16H173.089V20H171.169ZM182.186 24C181.68 24 181.186 23.9133 180.706 23.74C180.226 23.58 179.813 23.34 179.466 23.02L180.286 21.58C180.553 21.8333 180.846 22.0267 181.166 22.16C181.486 22.2933 181.826 22.36 182.186 22.36C182.653 22.36 183.04 22.24 183.346 22C183.653 21.76 183.94 21.3333 184.206 20.72L184.866 19.26L185.066 19.02L189.226 9.4H191.106L185.966 21.06C185.66 21.8067 185.313 22.3933 184.926 22.82C184.553 23.2467 184.14 23.5467 183.686 23.72C183.233 23.9067 182.733 24 182.186 24ZM184.706 20.34L179.866 9.4H181.866L185.986 18.84L184.706 20.34ZM196.945 20.12C195.878 20.12 194.932 19.8867 194.105 19.42C193.278 18.9533 192.625 18.3133 192.145 17.5C191.665 16.6733 191.425 15.74 191.425 14.7C191.425 13.6467 191.665 12.7133 192.145 11.9C192.625 11.0867 193.278 10.4533 194.105 10C194.932 9.53333 195.878 9.3 196.945 9.3C197.998 9.3 198.938 9.53333 199.765 10C200.605 10.4533 201.258 11.0867 201.725 11.9C202.205 12.7 202.445 13.6333 202.445 14.7C202.445 15.7533 202.205 16.6867 201.725 17.5C201.258 18.3133 200.605 18.9533 199.765 19.42C198.938 19.8867 197.998 20.12 196.945 20.12ZM196.945 18.44C197.625 18.44 198.232 18.2867 198.765 17.98C199.312 17.6733 199.738 17.24 200.045 16.68C200.352 16.1067 200.505 15.4467 200.505 14.7C200.505 13.94 200.352 13.2867 200.045 12.74C199.738 12.18 199.312 11.7467 198.765 11.44C198.232 11.1333 197.625 10.98 196.945 10.98C196.265 10.98 195.658 11.1333 195.125 11.44C194.592 11.7467 194.165 12.18 193.845 12.74C193.525 13.2867 193.365 13.94 193.365 14.7C193.365 15.4467 193.525 16.1067 193.845 16.68C194.165 17.24 194.592 17.6733 195.125 17.98C195.658 18.2867 196.265 18.44 196.945 18.44ZM209.36 20.12C208.454 20.12 207.654 19.9533 206.96 19.62C206.28 19.2867 205.747 18.78 205.36 18.1C204.987 17.4067 204.8 16.54 204.8 15.5V9.4H206.72V15.28C206.72 16.32 206.967 17.1 207.46 17.62C207.967 18.14 208.674 18.4 209.58 18.4C210.247 18.4 210.827 18.2667 211.32 18C211.814 17.72 212.194 17.32 212.46 16.8C212.727 16.2667 212.86 15.6267 212.86 14.88V9.4H214.78V20H212.96V17.14L213.26 17.9C212.914 18.6067 212.394 19.1533 211.7 19.54C211.007 19.9267 210.227 20.12 209.36 20.12ZM218.236 20V9.4H220.076V12.28L219.896 11.56C220.189 10.8267 220.682 10.2667 221.376 9.88C222.069 9.49333 222.922 9.3 223.936 9.3V11.16C223.856 11.1467 223.776 11.14 223.696 11.14C223.629 11.14 223.562 11.14 223.496 11.14C222.469 11.14 221.656 11.4467 221.056 12.06C220.456 12.6733 220.156 13.56 220.156 14.72V20H218.236ZM236.13 20.12C234.997 20.12 233.997 19.8867 233.13 19.42C232.277 18.9533 231.61 18.3133 231.13 17.5C230.663 16.6867 230.43 15.7533 230.43 14.7C230.43 13.6467 230.657 12.7133 231.11 11.9C231.577 11.0867 232.21 10.4533 233.01 10C233.823 9.53333 234.737 9.3 235.75 9.3C236.777 9.3 237.683 9.52667 238.47 9.98C239.257 10.4333 239.87 11.0733 240.31 11.9C240.763 12.7133 240.99 13.6667 240.99 14.76C240.99 14.84 240.983 14.9333 240.97 15.04C240.97 15.1467 240.963 15.2467 240.95 15.34H231.93V13.96H239.95L239.17 14.44C239.183 13.76 239.043 13.1533 238.75 12.62C238.457 12.0867 238.05 11.6733 237.53 11.38C237.023 11.0733 236.43 10.92 235.75 10.92C235.083 10.92 234.49 11.0733 233.97 11.38C233.45 11.6733 233.043 12.0933 232.75 12.64C232.457 13.1733 232.31 13.7867 232.31 14.48V14.8C232.31 15.5067 232.47 16.14 232.79 16.7C233.123 17.2467 233.583 17.6733 234.17 17.98C234.757 18.2867 235.43 18.44 236.19 18.44C236.817 18.44 237.383 18.3333 237.89 18.12C238.41 17.9067 238.863 17.5867 239.25 17.16L240.31 18.4C239.83 18.96 239.23 19.3867 238.51 19.68C237.803 19.9733 237.01 20.12 236.13 20.12ZM241.623 20L246.183 14.08L246.163 15.06L241.823 9.4H243.963L247.283 13.76H246.463L249.783 9.4H251.883L247.483 15.1L247.503 14.08L252.103 20H249.923L246.423 15.36L247.203 15.48L243.763 20H241.623ZM253.998 20V9.4H255.918V20H253.998ZM254.958 7.36C254.585 7.36 254.271 7.24 254.018 7C253.778 6.76 253.658 6.46667 253.658 6.12C253.658 5.76 253.778 5.46 254.018 5.22C254.271 4.98 254.585 4.86 254.958 4.86C255.331 4.86 255.638 4.98 255.878 5.22C256.131 5.44667 256.258 5.73333 256.258 6.08C256.258 6.44 256.138 6.74667 255.898 7C255.658 7.24 255.345 7.36 254.958 7.36ZM262.424 20.12C261.544 20.12 260.704 20 259.904 19.76C259.117 19.52 258.497 19.2267 258.044 18.88L258.844 17.36C259.297 17.6667 259.857 17.9267 260.524 18.14C261.191 18.3533 261.871 18.46 262.564 18.46C263.457 18.46 264.097 18.3333 264.484 18.08C264.884 17.8267 265.084 17.4733 265.084 17.02C265.084 16.6867 264.964 16.4267 264.724 16.24C264.484 16.0533 264.164 15.9133 263.764 15.82C263.377 15.7267 262.944 15.6467 262.464 15.58C261.984 15.5 261.504 15.4067 261.024 15.3C260.544 15.18 260.104 15.02 259.704 14.82C259.304 14.6067 258.984 14.32 258.744 13.96C258.504 13.5867 258.384 13.0933 258.384 12.48C258.384 11.84 258.564 11.28 258.924 10.8C259.284 10.32 259.791 9.95333 260.444 9.7C261.111 9.43333 261.897 9.3 262.804 9.3C263.497 9.3 264.197 9.38667 264.904 9.56C265.624 9.72 266.211 9.95333 266.664 10.26L265.844 11.78C265.364 11.46 264.864 11.24 264.344 11.12C263.824 11 263.304 10.94 262.784 10.94C261.944 10.94 261.317 11.08 260.904 11.36C260.491 11.6267 260.284 11.9733 260.284 12.4C260.284 12.76 260.404 13.04 260.644 13.24C260.897 13.4267 261.217 13.5733 261.604 13.68C262.004 13.7867 262.444 13.88 262.924 13.96C263.404 14.0267 263.884 14.12 264.364 14.24C264.844 14.3467 265.277 14.5 265.664 14.7C266.064 14.9 266.384 15.18 266.624 15.54C266.877 15.9 267.004 16.38 267.004 16.98C267.004 17.62 266.817 18.1733 266.444 18.64C266.071 19.1067 265.544 19.4733 264.864 19.74C264.184 19.9933 263.371 20.12 262.424 20.12ZM272.844 20.12C271.777 20.12 270.95 19.8333 270.364 19.26C269.777 18.6867 269.484 17.8667 269.484 16.8V7.08H271.404V16.72C271.404 17.2933 271.544 17.7333 271.824 18.04C272.117 18.3467 272.53 18.5 273.064 18.5C273.664 18.5 274.164 18.3333 274.564 18L275.164 19.38C274.87 19.6333 274.517 19.82 274.104 19.94C273.704 20.06 273.284 20.12 272.844 20.12ZM267.684 10.98V9.4H274.444V10.98H267.684ZM277.285 20V9.4H279.205V20H277.285ZM278.245 7.36C277.872 7.36 277.558 7.24 277.305 7C277.065 6.76 276.945 6.46667 276.945 6.12C276.945 5.76 277.065 5.46 277.305 5.22C277.558 4.98 277.872 4.86 278.245 4.86C278.618 4.86 278.925 4.98 279.165 5.22C279.418 5.44667 279.545 5.73333 279.545 6.08C279.545 6.44 279.425 6.74667 279.185 7C278.945 7.24 278.632 7.36 278.245 7.36ZM288.331 9.3C289.197 9.3 289.957 9.46667 290.611 9.8C291.277 10.1333 291.797 10.64 292.171 11.32C292.544 12 292.731 12.86 292.731 13.9V20H290.811V14.12C290.811 13.0933 290.557 12.32 290.051 11.8C289.557 11.28 288.857 11.02 287.951 11.02C287.271 11.02 286.677 11.1533 286.171 11.42C285.664 11.6867 285.271 12.08 284.991 12.6C284.724 13.12 284.591 13.7667 284.591 14.54V20H282.671V9.4H284.511V12.26L284.211 11.5C284.557 10.8067 285.091 10.2667 285.811 9.88C286.531 9.49333 287.371 9.3 288.331 9.3ZM300.724 24C299.751 24 298.804 23.86 297.884 23.58C296.977 23.3133 296.237 22.9267 295.664 22.42L296.584 20.94C297.077 21.3667 297.684 21.7 298.404 21.94C299.124 22.1933 299.877 22.32 300.664 22.32C301.917 22.32 302.837 22.0267 303.424 21.44C304.011 20.8533 304.304 19.96 304.304 18.76V16.52L304.504 14.42L304.404 12.3V9.4H306.224V18.56C306.224 20.4267 305.757 21.8 304.824 22.68C303.891 23.56 302.524 24 300.724 24ZM300.484 19.56C299.457 19.56 298.537 19.3467 297.724 18.92C296.924 18.48 296.284 17.8733 295.804 17.1C295.337 16.3267 295.104 15.4333 295.104 14.42C295.104 13.3933 295.337 12.5 295.804 11.74C296.284 10.9667 296.924 10.3667 297.724 9.94C298.537 9.51333 299.457 9.3 300.484 9.3C301.391 9.3 302.217 9.48667 302.964 9.86C303.711 10.22 304.304 10.78 304.744 11.54C305.197 12.3 305.424 13.26 305.424 14.42C305.424 15.5667 305.197 16.52 304.744 17.28C304.304 18.04 303.711 18.6133 302.964 19C302.217 19.3733 301.391 19.56 300.484 19.56ZM300.704 17.88C301.411 17.88 302.037 17.7333 302.584 17.44C303.131 17.1467 303.557 16.74 303.864 16.22C304.184 15.7 304.344 15.1 304.344 14.42C304.344 13.74 304.184 13.14 303.864 12.62C303.557 12.1 303.131 11.7 302.584 11.42C302.037 11.1267 301.411 10.98 300.704 10.98C299.997 10.98 299.364 11.1267 298.804 11.42C298.257 11.7 297.824 12.1 297.504 12.62C297.197 13.14 297.044 13.74 297.044 14.42C297.044 15.1 297.197 15.7 297.504 16.22C297.824 16.74 298.257 17.1467 298.804 17.44C299.364 17.7333 299.997 17.88 300.704 17.88ZM318.504 20.12C317.437 20.12 316.61 19.8333 316.024 19.26C315.437 18.6867 315.144 17.8667 315.144 16.8V7.08H317.064V16.72C317.064 17.2933 317.204 17.7333 317.484 18.04C317.777 18.3467 318.19 18.5 318.724 18.5C319.324 18.5 319.824 18.3333 320.224 18L320.824 19.38C320.53 19.6333 320.177 19.82 319.764 19.94C319.364 20.06 318.944 20.12 318.504 20.12ZM313.344 10.98V9.4H320.104V10.98H313.344ZM327.133 20.12C326.067 20.12 325.12 19.8867 324.293 19.42C323.467 18.9533 322.813 18.3133 322.333 17.5C321.853 16.6733 321.613 15.74 321.613 14.7C321.613 13.6467 321.853 12.7133 322.333 11.9C322.813 11.0867 323.467 10.4533 324.293 10C325.12 9.53333 326.067 9.3 327.133 9.3C328.187 9.3 329.127 9.53333 329.953 10C330.793 10.4533 331.447 11.0867 331.913 11.9C332.393 12.7 332.633 13.6333 332.633 14.7C332.633 15.7533 332.393 16.6867 331.913 17.5C331.447 18.3133 330.793 18.9533 329.953 19.42C329.127 19.8867 328.187 20.12 327.133 20.12ZM327.133 18.44C327.813 18.44 328.42 18.2867 328.953 17.98C329.5 17.6733 329.927 17.24 330.233 16.68C330.54 16.1067 330.693 15.4467 330.693 14.7C330.693 13.94 330.54 13.2867 330.233 12.74C329.927 12.18 329.5 11.7467 328.953 11.44C328.42 11.1333 327.813 10.98 327.133 10.98C326.453 10.98 325.847 11.1333 325.313 11.44C324.78 11.7467 324.353 12.18 324.033 12.74C323.713 13.2867 323.553 13.94 323.553 14.7C323.553 15.4467 323.713 16.1067 324.033 16.68C324.353 17.24 324.78 17.6733 325.313 17.98C325.847 18.2867 326.453 18.44 327.133 18.44ZM339.629 20.12C338.562 20.12 337.615 19.8867 336.789 19.42C335.962 18.9533 335.309 18.3133 334.829 17.5C334.349 16.6733 334.109 15.74 334.109 14.7C334.109 13.6467 334.349 12.7133 334.829 11.9C335.309 11.0867 335.962 10.4533 336.789 10C337.615 9.53333 338.562 9.3 339.629 9.3C340.682 9.3 341.622 9.53333 342.449 10C343.289 10.4533 343.942 11.0867 344.409 11.9C344.889 12.7 345.129 13.6333 345.129 14.7C345.129 15.7533 344.889 16.6867 344.409 17.5C343.942 18.3133 343.289 18.9533 342.449 19.42C341.622 19.8867 340.682 20.12 339.629 20.12ZM339.629 18.44C340.309 18.44 340.915 18.2867 341.449 17.98C341.995 17.6733 342.422 17.24 342.729 16.68C343.035 16.1067 343.189 15.4467 343.189 14.7C343.189 13.94 343.035 13.2867 342.729 12.74C342.422 12.18 341.995 11.7467 341.449 11.44C340.915 11.1333 340.309 10.98 339.629 10.98C338.949 10.98 338.342 11.1333 337.809 11.44C337.275 11.7467 336.849 12.18 336.529 12.74C336.209 13.2867 336.049 13.94 336.049 14.7C336.049 15.4467 336.209 16.1067 336.529 16.68C336.849 17.24 337.275 17.6733 337.809 17.98C338.342 18.2867 338.949 18.44 339.629 18.44ZM347.584 20V5.16H349.504V20H347.584ZM356.01 20.12C355.13 20.12 354.29 20 353.49 19.76C352.703 19.52 352.083 19.2267 351.63 18.88L352.43 17.36C352.883 17.6667 353.443 17.9267 354.11 18.14C354.777 18.3533 355.457 18.46 356.15 18.46C357.043 18.46 357.683 18.3333 358.07 18.08C358.47 17.8267 358.67 17.4733 358.67 17.02C358.67 16.6867 358.55 16.4267 358.31 16.24C358.07 16.0533 357.75 15.9133 357.35 15.82C356.963 15.7267 356.53 15.6467 356.05 15.58C355.57 15.5 355.09 15.4067 354.61 15.3C354.13 15.18 353.69 15.02 353.29 14.82C352.89 14.6067 352.57 14.32 352.33 13.96C352.09 13.5867 351.97 13.0933 351.97 12.48C351.97 11.84 352.15 11.28 352.51 10.8C352.87 10.32 353.377 9.95333 354.03 9.7C354.697 9.43333 355.483 9.3 356.39 9.3C357.083 9.3 357.783 9.38667 358.49 9.56C359.21 9.72 359.797 9.95333 360.25 10.26L359.43 11.78C358.95 11.46 358.45 11.24 357.93 11.12C357.41 11 356.89 10.94 356.37 10.94C355.53 10.94 354.903 11.08 354.49 11.36C354.077 11.6267 353.87 11.9733 353.87 12.4C353.87 12.76 353.99 13.04 354.23 13.24C354.483 13.4267 354.803 13.5733 355.19 13.68C355.59 13.7867 356.03 13.88 356.51 13.96C356.99 14.0267 357.47 14.12 357.95 14.24C358.43 14.3467 358.863 14.5 359.25 14.7C359.65 14.9 359.97 15.18 360.21 15.54C360.463 15.9 360.59 16.38 360.59 16.98C360.59 17.62 360.403 18.1733 360.03 18.64C359.657 19.1067 359.13 19.4733 358.45 19.74C357.77 19.9933 356.957 20.12 356.01 20.12Z" fill="#14BCB2"/>
</svg>
