<svg width="206" height="26" viewBox="0 0 206 26" fill="none" xmlns="http://www.w3.org/2000/svg">
<path opacity="0.2" d="M21 13C21 14.78 20.4722 16.5201 19.4832 18.0001C18.4943 19.4802 17.0887 20.6337 15.4442 21.3149C13.7996 21.9961 11.99 22.1743 10.2442 21.8271C8.49836 21.4798 6.89472 20.6226 5.63604 19.364C4.37737 18.1053 3.5202 16.5016 3.17294 14.7558C2.82567 13.01 3.0039 11.2004 3.68509 9.55585C4.36628 7.91131 5.51983 6.50571 6.99987 5.51677C8.47992 4.52784 10.22 4 12 4C14.387 4 16.6761 4.94821 18.364 6.63604C20.0518 8.32387 21 10.6131 21 13Z" fill="#0FF1F6"/>
<path d="M16.2806 10.2194C16.3504 10.289 16.4057 10.3717 16.4434 10.4628C16.4812 10.5538 16.5006 10.6514 16.5006 10.75C16.5006 10.8486 16.4812 10.9462 16.4434 11.0372C16.4057 11.1283 16.3504 11.211 16.2806 11.2806L11.0306 16.5306C10.961 16.6004 10.8783 16.6557 10.7872 16.6934C10.6962 16.7312 10.5986 16.7506 10.5 16.7506C10.4014 16.7506 10.3038 16.7312 10.2128 16.6934C10.1218 16.6557 10.039 16.6004 9.96938 16.5306L7.71938 14.2806C7.57865 14.1399 7.49959 13.949 7.49959 13.75C7.49959 13.551 7.57865 13.3601 7.71938 13.2194C7.86011 13.0786 8.05098 12.9996 8.25 12.9996C8.44903 12.9996 8.6399 13.0786 8.78063 13.2194L10.5 14.9397L15.2194 10.2194C15.289 10.1496 15.3718 10.0943 15.4628 10.0566C15.5538 10.0188 15.6514 9.99941 15.75 9.99941C15.8486 9.99941 15.9462 10.0188 16.0372 10.0566C16.1283 10.0943 16.211 10.1496 16.2806 10.2194ZM21.75 13C21.75 14.9284 21.1782 16.8134 20.1068 18.4168C19.0355 20.0202 17.5127 21.2699 15.7312 22.0078C13.9496 22.7458 11.9892 22.9389 10.0979 22.5627C8.20656 22.1865 6.46928 21.2579 5.10571 19.8943C3.74215 18.5307 2.81355 16.7934 2.43735 14.9021C2.06114 13.0108 2.25422 11.0504 2.99218 9.26884C3.73013 7.48726 4.97982 5.96452 6.58319 4.89317C8.18657 3.82183 10.0716 3.25 12 3.25C14.585 3.25273 17.0634 4.28084 18.8913 6.10872C20.7192 7.93661 21.7473 10.415 21.75 13ZM20.25 13C20.25 11.3683 19.7662 9.77325 18.8596 8.41655C17.9531 7.05984 16.6646 6.00242 15.1571 5.37799C13.6497 4.75357 11.9909 4.59019 10.3905 4.90852C8.79017 5.22685 7.32016 6.01259 6.16637 7.16637C5.01259 8.32015 4.22685 9.79016 3.90853 11.3905C3.5902 12.9908 3.75358 14.6496 4.378 16.1571C5.00242 17.6646 6.05984 18.9531 7.41655 19.8596C8.77326 20.7661 10.3683 21.25 12 21.25C14.1873 21.2475 16.2843 20.3775 17.8309 18.8309C19.3775 17.2843 20.2475 15.1873 20.25 13Z" fill="#0FF1F6"/>
<path d="M42.42 20.16C41.3533 20.16 40.36 19.98 39.44 19.62C38.5333 19.26 37.7467 18.76 37.08 18.12C36.4133 17.4667 35.8933 16.7067 35.52 15.84C35.1467 14.9733 34.96 14.0267 34.96 13C34.96 11.9733 35.1467 11.0267 35.52 10.16C35.8933 9.29333 36.4133 8.54 37.08 7.9C37.7467 7.24667 38.5333 6.74 39.44 6.38C40.3467 6.02 41.34 5.84 42.42 5.84C43.4867 5.84 44.4667 6.02 45.36 6.38C46.2667 6.72667 47.0533 7.22667 47.72 7.88C48.4 8.52 48.92 9.27333 49.28 10.14C49.6533 11.0067 49.84 11.96 49.84 13C49.84 14.04 49.6533 14.9933 49.28 15.86C48.92 16.7267 48.4 17.4867 47.72 18.14C47.0533 18.78 46.2667 19.28 45.36 19.64C44.4667 19.9867 43.4867 20.16 42.42 20.16ZM47 22.92C46.5333 22.92 46.0867 22.86 45.66 22.74C45.2333 22.6333 44.8067 22.4533 44.38 22.2C43.9533 21.96 43.5133 21.64 43.06 21.24C42.6067 20.8533 42.1133 20.3733 41.58 19.8L43.72 19.24C44.12 19.7333 44.5 20.1333 44.86 20.44C45.2333 20.76 45.6 20.9867 45.96 21.12C46.32 21.2667 46.6733 21.34 47.02 21.34C48.02 21.34 48.8733 20.94 49.58 20.14L50.52 21.28C49.6133 22.3733 48.44 22.92 47 22.92ZM42.42 18.38C43.1933 18.38 43.9067 18.2467 44.56 17.98C45.2267 17.7133 45.8 17.3333 46.28 16.84C46.7733 16.3467 47.1533 15.7733 47.42 15.12C47.7 14.4667 47.84 13.76 47.84 13C47.84 12.2267 47.7 11.5133 47.42 10.86C47.1533 10.2067 46.7733 9.64 46.28 9.16C45.8 8.66667 45.2267 8.28667 44.56 8.02C43.9067 7.75333 43.1933 7.62 42.42 7.62C41.6333 7.62 40.9067 7.75333 40.24 8.02C39.5867 8.28667 39.0133 8.66667 38.52 9.16C38.0267 9.64 37.64 10.2067 37.36 10.86C37.0933 11.5133 36.96 12.2267 36.96 13C36.96 13.76 37.0933 14.4667 37.36 15.12C37.64 15.7733 38.0267 16.3467 38.52 16.84C39.0133 17.3333 39.5867 17.7133 40.24 17.98C40.9067 18.2467 41.6333 18.38 42.42 18.38ZM56.8769 20.12C55.9702 20.12 55.1702 19.9533 54.4769 19.62C53.7969 19.2867 53.2635 18.78 52.8769 18.1C52.5035 17.4067 52.3169 16.54 52.3169 15.5V9.4H54.2369V15.28C54.2369 16.32 54.4835 17.1 54.9769 17.62C55.4835 18.14 56.1902 18.4 57.0969 18.4C57.7635 18.4 58.3435 18.2667 58.8369 18C59.3302 17.72 59.7102 17.32 59.9769 16.8C60.2435 16.2667 60.3769 15.6267 60.3769 14.88V9.4H62.2969V20H60.4769V17.14L60.7769 17.9C60.4302 18.6067 59.9102 19.1533 59.2169 19.54C58.5235 19.9267 57.7435 20.12 56.8769 20.12ZM65.752 20V9.4H67.672V20H65.752ZM66.712 7.36C66.3387 7.36 66.0254 7.24 65.772 7C65.532 6.76 65.412 6.46667 65.412 6.12C65.412 5.76 65.532 5.46 65.772 5.22C66.0254 4.98 66.3387 4.86 66.712 4.86C67.0854 4.86 67.392 4.98 67.632 5.22C67.8854 5.44667 68.012 5.73333 68.012 6.08C68.012 6.44 67.892 6.74667 67.652 7C67.412 7.24 67.0987 7.36 66.712 7.36ZM75.758 20.12C74.678 20.12 73.7113 19.8867 72.858 19.42C72.018 18.9533 71.358 18.3133 70.878 17.5C70.398 16.6867 70.158 15.7533 70.158 14.7C70.158 13.6467 70.398 12.7133 70.878 11.9C71.358 11.0867 72.018 10.4533 72.858 10C73.7113 9.53333 74.678 9.3 75.758 9.3C76.718 9.3 77.5713 9.49333 78.318 9.88C79.078 10.2533 79.6646 10.8133 80.078 11.56L78.618 12.5C78.2713 11.98 77.8446 11.6 77.338 11.36C76.8446 11.1067 76.3113 10.98 75.738 10.98C75.0446 10.98 74.4246 11.1333 73.878 11.44C73.3313 11.7467 72.898 12.18 72.578 12.74C72.258 13.2867 72.098 13.94 72.098 14.7C72.098 15.46 72.258 16.12 72.578 16.68C72.898 17.24 73.3313 17.6733 73.878 17.98C74.4246 18.2867 75.0446 18.44 75.738 18.44C76.3113 18.44 76.8446 18.32 77.338 18.08C77.8446 17.8267 78.2713 17.44 78.618 16.92L80.078 17.84C79.6646 18.5733 79.078 19.14 78.318 19.54C77.5713 19.9267 76.718 20.12 75.758 20.12ZM83.787 17.44L83.827 14.98L89.927 9.4H92.247L87.567 14L86.527 14.88L83.787 17.44ZM82.227 20V5.16H84.147V20H82.227ZM90.327 20L86.167 14.84L87.407 13.3L92.687 20H90.327ZM103.162 20.12C102.096 20.12 101.269 19.8333 100.682 19.26C100.096 18.6867 99.8023 17.8667 99.8023 16.8V7.08H101.722V16.72C101.722 17.2933 101.862 17.7333 102.142 18.04C102.436 18.3467 102.849 18.5 103.382 18.5C103.982 18.5 104.482 18.3333 104.882 18L105.482 19.38C105.189 19.6333 104.836 19.82 104.422 19.94C104.022 20.06 103.602 20.12 103.162 20.12ZM98.0023 10.98V9.4H104.762V10.98H98.0023ZM111.792 20.12C110.725 20.12 109.779 19.8867 108.952 19.42C108.125 18.9533 107.472 18.3133 106.992 17.5C106.512 16.6733 106.272 15.74 106.272 14.7C106.272 13.6467 106.512 12.7133 106.992 11.9C107.472 11.0867 108.125 10.4533 108.952 10C109.779 9.53333 110.725 9.3 111.792 9.3C112.845 9.3 113.785 9.53333 114.612 10C115.452 10.4533 116.105 11.0867 116.572 11.9C117.052 12.7 117.292 13.6333 117.292 14.7C117.292 15.7533 117.052 16.6867 116.572 17.5C116.105 18.3133 115.452 18.9533 114.612 19.42C113.785 19.8867 112.845 20.12 111.792 20.12ZM111.792 18.44C112.472 18.44 113.079 18.2867 113.612 17.98C114.159 17.6733 114.585 17.24 114.892 16.68C115.199 16.1067 115.352 15.4467 115.352 14.7C115.352 13.94 115.199 13.2867 114.892 12.74C114.585 12.18 114.159 11.7467 113.612 11.44C113.079 11.1333 112.472 10.98 111.792 10.98C111.112 10.98 110.505 11.1333 109.972 11.44C109.439 11.7467 109.012 12.18 108.692 12.74C108.372 13.2867 108.212 13.94 108.212 14.7C108.212 15.4467 108.372 16.1067 108.692 16.68C109.012 17.24 109.439 17.6733 109.972 17.98C110.505 18.2867 111.112 18.44 111.792 18.44ZM127.958 20.12C127.078 20.12 126.238 20 125.438 19.76C124.652 19.52 124.032 19.2267 123.578 18.88L124.378 17.36C124.832 17.6667 125.392 17.9267 126.058 18.14C126.725 18.3533 127.405 18.46 128.098 18.46C128.992 18.46 129.632 18.3333 130.018 18.08C130.418 17.8267 130.618 17.4733 130.618 17.02C130.618 16.6867 130.498 16.4267 130.258 16.24C130.018 16.0533 129.698 15.9133 129.298 15.82C128.912 15.7267 128.478 15.6467 127.998 15.58C127.518 15.5 127.038 15.4067 126.558 15.3C126.078 15.18 125.638 15.02 125.238 14.82C124.838 14.6067 124.518 14.32 124.278 13.96C124.038 13.5867 123.918 13.0933 123.918 12.48C123.918 11.84 124.098 11.28 124.458 10.8C124.818 10.32 125.325 9.95333 125.978 9.7C126.645 9.43333 127.432 9.3 128.338 9.3C129.032 9.3 129.732 9.38667 130.438 9.56C131.158 9.72 131.745 9.95333 132.198 10.26L131.378 11.78C130.898 11.46 130.398 11.24 129.878 11.12C129.358 11 128.838 10.94 128.318 10.94C127.478 10.94 126.852 11.08 126.438 11.36C126.025 11.6267 125.818 11.9733 125.818 12.4C125.818 12.76 125.938 13.04 126.178 13.24C126.432 13.4267 126.752 13.5733 127.138 13.68C127.538 13.7867 127.978 13.88 128.458 13.96C128.938 14.0267 129.418 14.12 129.898 14.24C130.378 14.3467 130.812 14.5 131.198 14.7C131.598 14.9 131.918 15.18 132.158 15.54C132.412 15.9 132.538 16.38 132.538 16.98C132.538 17.62 132.352 18.1733 131.978 18.64C131.605 19.1067 131.078 19.4733 130.398 19.74C129.718 19.9933 128.905 20.12 127.958 20.12ZM139.358 20.12C138.278 20.12 137.311 19.8867 136.458 19.42C135.618 18.9533 134.958 18.3133 134.478 17.5C133.998 16.6867 133.758 15.7533 133.758 14.7C133.758 13.6467 133.998 12.7133 134.478 11.9C134.958 11.0867 135.618 10.4533 136.458 10C137.311 9.53333 138.278 9.3 139.358 9.3C140.318 9.3 141.171 9.49333 141.918 9.88C142.678 10.2533 143.265 10.8133 143.678 11.56L142.218 12.5C141.871 11.98 141.445 11.6 140.938 11.36C140.445 11.1067 139.911 10.98 139.338 10.98C138.645 10.98 138.025 11.1333 137.478 11.44C136.931 11.7467 136.498 12.18 136.178 12.74C135.858 13.2867 135.698 13.94 135.698 14.7C135.698 15.46 135.858 16.12 136.178 16.68C136.498 17.24 136.931 17.6733 137.478 17.98C138.025 18.2867 138.645 18.44 139.338 18.44C139.911 18.44 140.445 18.32 140.938 18.08C141.445 17.8267 141.871 17.44 142.218 16.92L143.678 17.84C143.265 18.5733 142.678 19.14 141.918 19.54C141.171 19.9267 140.318 20.12 139.358 20.12ZM152.544 20V17.76L152.444 17.34V13.52C152.444 12.7067 152.204 12.08 151.724 11.64C151.257 11.1867 150.55 10.96 149.604 10.96C148.977 10.96 148.364 11.0667 147.764 11.28C147.164 11.48 146.657 11.7533 146.244 12.1L145.444 10.66C145.99 10.22 146.644 9.88667 147.404 9.66C148.177 9.42 148.984 9.3 149.824 9.3C151.277 9.3 152.397 9.65333 153.184 10.36C153.97 11.0667 154.364 12.1467 154.364 13.6V20H152.544ZM149.064 20.12C148.277 20.12 147.584 19.9867 146.984 19.72C146.397 19.4533 145.944 19.0867 145.624 18.62C145.304 18.14 145.144 17.6 145.144 17C145.144 16.4267 145.277 15.9067 145.544 15.44C145.824 14.9733 146.27 14.6 146.884 14.32C147.51 14.04 148.35 13.9 149.404 13.9H152.764V15.28H149.484C148.524 15.28 147.877 15.44 147.544 15.76C147.21 16.08 147.044 16.4667 147.044 16.92C147.044 17.44 147.25 17.86 147.664 18.18C148.077 18.4867 148.65 18.64 149.384 18.64C150.104 18.64 150.73 18.48 151.264 18.16C151.81 17.84 152.204 17.3733 152.444 16.76L152.824 18.08C152.57 18.7067 152.124 19.2067 151.484 19.58C150.844 19.94 150.037 20.12 149.064 20.12ZM157.717 20V5.16H159.637V20H157.717ZM167.823 20.12C166.689 20.12 165.689 19.8867 164.823 19.42C163.969 18.9533 163.303 18.3133 162.823 17.5C162.356 16.6867 162.123 15.7533 162.123 14.7C162.123 13.6467 162.349 12.7133 162.803 11.9C163.269 11.0867 163.903 10.4533 164.703 10C165.516 9.53333 166.429 9.3 167.443 9.3C168.469 9.3 169.376 9.52667 170.163 9.98C170.949 10.4333 171.563 11.0733 172.003 11.9C172.456 12.7133 172.683 13.6667 172.683 14.76C172.683 14.84 172.676 14.9333 172.663 15.04C172.663 15.1467 172.656 15.2467 172.643 15.34H163.623V13.96H171.643L170.863 14.44C170.876 13.76 170.736 13.1533 170.443 12.62C170.149 12.0867 169.743 11.6733 169.223 11.38C168.716 11.0733 168.123 10.92 167.443 10.92C166.776 10.92 166.183 11.0733 165.663 11.38C165.143 11.6733 164.736 12.0933 164.443 12.64C164.149 13.1733 164.003 13.7867 164.003 14.48V14.8C164.003 15.5067 164.163 16.14 164.483 16.7C164.816 17.2467 165.276 17.6733 165.863 17.98C166.449 18.2867 167.123 18.44 167.883 18.44C168.509 18.44 169.076 18.3333 169.583 18.12C170.103 17.9067 170.556 17.5867 170.943 17.16L172.003 18.4C171.523 18.96 170.923 19.3867 170.203 19.68C169.496 19.9733 168.703 20.12 167.823 20.12ZM184.78 20.12C183.873 20.12 183.073 19.9533 182.38 19.62C181.7 19.2867 181.167 18.78 180.78 18.1C180.407 17.4067 180.22 16.54 180.22 15.5V9.4H182.14V15.28C182.14 16.32 182.387 17.1 182.88 17.62C183.387 18.14 184.093 18.4 185 18.4C185.667 18.4 186.247 18.2667 186.74 18C187.233 17.72 187.613 17.32 187.88 16.8C188.147 16.2667 188.28 15.6267 188.28 14.88V9.4H190.2V20H188.38V17.14L188.68 17.9C188.333 18.6067 187.813 19.1533 187.12 19.54C186.427 19.9267 185.647 20.12 184.78 20.12ZM199.275 20.12C198.395 20.12 197.588 19.92 196.855 19.52C196.135 19.1067 195.555 18.5 195.115 17.7C194.688 16.9 194.475 15.9 194.475 14.7C194.475 13.5 194.682 12.5 195.095 11.7C195.522 10.9 196.095 10.3 196.815 9.9C197.548 9.5 198.368 9.3 199.275 9.3C200.315 9.3 201.235 9.52667 202.035 9.98C202.835 10.4333 203.468 11.0667 203.935 11.88C204.402 12.68 204.635 13.62 204.635 14.7C204.635 15.78 204.402 16.7267 203.935 17.54C203.468 18.3533 202.835 18.9867 202.035 19.44C201.235 19.8933 200.315 20.12 199.275 20.12ZM193.655 23.88V9.4H195.495V12.26L195.375 14.72L195.575 17.18V23.88H193.655ZM199.115 18.44C199.795 18.44 200.402 18.2867 200.935 17.98C201.482 17.6733 201.908 17.24 202.215 16.68C202.535 16.1067 202.695 15.4467 202.695 14.7C202.695 13.94 202.535 13.2867 202.215 12.74C201.908 12.18 201.482 11.7467 200.935 11.44C200.402 11.1333 199.795 10.98 199.115 10.98C198.448 10.98 197.842 11.1333 197.295 11.44C196.762 11.7467 196.335 12.18 196.015 12.74C195.708 13.2867 195.555 13.94 195.555 14.7C195.555 15.4467 195.708 16.1067 196.015 16.68C196.335 17.24 196.762 17.6733 197.295 17.98C197.842 18.2867 198.448 18.44 199.115 18.44Z" fill="#14BCB2"/>
</svg>
