<svg width="177" height="26" viewBox="0 0 177 26" fill="none" xmlns="http://www.w3.org/2000/svg">
<path opacity="0.2" d="M21 13C21 14.78 20.4722 16.5201 19.4832 18.0001C18.4943 19.4802 17.0887 20.6337 15.4442 21.3149C13.7996 21.9961 11.99 22.1743 10.2442 21.8271C8.49836 21.4798 6.89472 20.6226 5.63604 19.364C4.37737 18.1053 3.5202 16.5016 3.17294 14.7558C2.82567 13.01 3.0039 11.2004 3.68509 9.55585C4.36628 7.91131 5.51983 6.50571 6.99987 5.51677C8.47992 4.52784 10.22 4 12 4C14.387 4 16.6761 4.94821 18.364 6.63604C20.0518 8.32387 21 10.6131 21 13Z" fill="#0FF1F6"/>
<path d="M16.2806 10.2194C16.3504 10.289 16.4057 10.3717 16.4434 10.4628C16.4812 10.5538 16.5006 10.6514 16.5006 10.75C16.5006 10.8486 16.4812 10.9462 16.4434 11.0372C16.4057 11.1283 16.3504 11.211 16.2806 11.2806L11.0306 16.5306C10.961 16.6004 10.8783 16.6557 10.7872 16.6934C10.6962 16.7312 10.5986 16.7506 10.5 16.7506C10.4014 16.7506 10.3038 16.7312 10.2128 16.6934C10.1218 16.6557 10.039 16.6004 9.96938 16.5306L7.71938 14.2806C7.57865 14.1399 7.49959 13.949 7.49959 13.75C7.49959 13.551 7.57865 13.3601 7.71938 13.2194C7.86011 13.0786 8.05098 12.9996 8.25 12.9996C8.44903 12.9996 8.6399 13.0786 8.78063 13.2194L10.5 14.9397L15.2194 10.2194C15.289 10.1496 15.3718 10.0943 15.4628 10.0566C15.5538 10.0188 15.6514 9.99941 15.75 9.99941C15.8486 9.99941 15.9462 10.0188 16.0372 10.0566C16.1283 10.0943 16.211 10.1496 16.2806 10.2194ZM21.75 13C21.75 14.9284 21.1782 16.8134 20.1068 18.4168C19.0355 20.0202 17.5127 21.2699 15.7312 22.0078C13.9496 22.7458 11.9892 22.9389 10.0979 22.5627C8.20656 22.1865 6.46928 21.2579 5.10571 19.8943C3.74215 18.5307 2.81355 16.7934 2.43735 14.9021C2.06114 13.0108 2.25422 11.0504 2.99218 9.26884C3.73013 7.48726 4.97982 5.96452 6.58319 4.89317C8.18657 3.82183 10.0716 3.25 12 3.25C14.585 3.25273 17.0634 4.28084 18.8913 6.10872C20.7192 7.93661 21.7473 10.415 21.75 13ZM20.25 13C20.25 11.3683 19.7662 9.77325 18.8596 8.41655C17.9531 7.05984 16.6646 6.00242 15.1571 5.37799C13.6497 4.75357 11.9909 4.59019 10.3905 4.90852C8.79017 5.22685 7.32016 6.01259 6.16637 7.16637C5.01259 8.32015 4.22685 9.79016 3.90853 11.3905C3.5902 12.9908 3.75358 14.6496 4.378 16.1571C5.00242 17.6646 6.05984 18.9531 7.41655 19.8596C8.77326 20.7661 10.3683 21.25 12 21.25C14.1873 21.2475 16.2843 20.3775 17.8309 18.8309C19.3775 17.2843 20.2475 15.1873 20.25 13Z" fill="#0FF1F6"/>
<path d="M42.42 20.16C41.3533 20.16 40.36 19.98 39.44 19.62C38.5333 19.26 37.7467 18.76 37.08 18.12C36.4133 17.4667 35.8933 16.7067 35.52 15.84C35.1467 14.9733 34.96 14.0267 34.96 13C34.96 11.9733 35.1467 11.0267 35.52 10.16C35.8933 9.29333 36.4133 8.54 37.08 7.9C37.7467 7.24667 38.5333 6.74 39.44 6.38C40.3467 6.02 41.34 5.84 42.42 5.84C43.4867 5.84 44.4667 6.02 45.36 6.38C46.2667 6.72667 47.0533 7.22667 47.72 7.88C48.4 8.52 48.92 9.27333 49.28 10.14C49.6533 11.0067 49.84 11.96 49.84 13C49.84 14.04 49.6533 14.9933 49.28 15.86C48.92 16.7267 48.4 17.4867 47.72 18.14C47.0533 18.78 46.2667 19.28 45.36 19.64C44.4667 19.9867 43.4867 20.16 42.42 20.16ZM47 22.92C46.5333 22.92 46.0867 22.86 45.66 22.74C45.2333 22.6333 44.8067 22.4533 44.38 22.2C43.9533 21.96 43.5133 21.64 43.06 21.24C42.6067 20.8533 42.1133 20.3733 41.58 19.8L43.72 19.24C44.12 19.7333 44.5 20.1333 44.86 20.44C45.2333 20.76 45.6 20.9867 45.96 21.12C46.32 21.2667 46.6733 21.34 47.02 21.34C48.02 21.34 48.8733 20.94 49.58 20.14L50.52 21.28C49.6133 22.3733 48.44 22.92 47 22.92ZM42.42 18.38C43.1933 18.38 43.9067 18.2467 44.56 17.98C45.2267 17.7133 45.8 17.3333 46.28 16.84C46.7733 16.3467 47.1533 15.7733 47.42 15.12C47.7 14.4667 47.84 13.76 47.84 13C47.84 12.2267 47.7 11.5133 47.42 10.86C47.1533 10.2067 46.7733 9.64 46.28 9.16C45.8 8.66667 45.2267 8.28667 44.56 8.02C43.9067 7.75333 43.1933 7.62 42.42 7.62C41.6333 7.62 40.9067 7.75333 40.24 8.02C39.5867 8.28667 39.0133 8.66667 38.52 9.16C38.0267 9.64 37.64 10.2067 37.36 10.86C37.0933 11.5133 36.96 12.2267 36.96 13C36.96 13.76 37.0933 14.4667 37.36 15.12C37.64 15.7733 38.0267 16.3467 38.52 16.84C39.0133 17.3333 39.5867 17.7133 40.24 17.98C40.9067 18.2467 41.6333 18.38 42.42 18.38ZM56.8769 20.12C55.9702 20.12 55.1702 19.9533 54.4769 19.62C53.7969 19.2867 53.2635 18.78 52.8769 18.1C52.5035 17.4067 52.3169 16.54 52.3169 15.5V9.4H54.2369V15.28C54.2369 16.32 54.4835 17.1 54.9769 17.62C55.4835 18.14 56.1902 18.4 57.0969 18.4C57.7635 18.4 58.3435 18.2667 58.8369 18C59.3302 17.72 59.7102 17.32 59.9769 16.8C60.2435 16.2667 60.3769 15.6267 60.3769 14.88V9.4H62.2969V20H60.4769V17.14L60.7769 17.9C60.4302 18.6067 59.9102 19.1533 59.2169 19.54C58.5235 19.9267 57.7435 20.12 56.8769 20.12ZM65.752 20V9.4H67.672V20H65.752ZM66.712 7.36C66.3387 7.36 66.0254 7.24 65.772 7C65.532 6.76 65.412 6.46667 65.412 6.12C65.412 5.76 65.532 5.46 65.772 5.22C66.0254 4.98 66.3387 4.86 66.712 4.86C67.0854 4.86 67.392 4.98 67.632 5.22C67.8854 5.44667 68.012 5.73333 68.012 6.08C68.012 6.44 67.892 6.74667 67.652 7C67.412 7.24 67.0987 7.36 66.712 7.36ZM75.758 20.12C74.678 20.12 73.7113 19.8867 72.858 19.42C72.018 18.9533 71.358 18.3133 70.878 17.5C70.398 16.6867 70.158 15.7533 70.158 14.7C70.158 13.6467 70.398 12.7133 70.878 11.9C71.358 11.0867 72.018 10.4533 72.858 10C73.7113 9.53333 74.678 9.3 75.758 9.3C76.718 9.3 77.5713 9.49333 78.318 9.88C79.078 10.2533 79.6646 10.8133 80.078 11.56L78.618 12.5C78.2713 11.98 77.8446 11.6 77.338 11.36C76.8446 11.1067 76.3113 10.98 75.738 10.98C75.0446 10.98 74.4246 11.1333 73.878 11.44C73.3313 11.7467 72.898 12.18 72.578 12.74C72.258 13.2867 72.098 13.94 72.098 14.7C72.098 15.46 72.258 16.12 72.578 16.68C72.898 17.24 73.3313 17.6733 73.878 17.98C74.4246 18.2867 75.0446 18.44 75.738 18.44C76.3113 18.44 76.8446 18.32 77.338 18.08C77.8446 17.8267 78.2713 17.44 78.618 16.92L80.078 17.84C79.6646 18.5733 79.078 19.14 78.318 19.54C77.5713 19.9267 76.718 20.12 75.758 20.12ZM83.787 17.44L83.827 14.98L89.927 9.4H92.247L87.567 14L86.527 14.88L83.787 17.44ZM82.227 20V5.16H84.147V20H82.227ZM90.327 20L86.167 14.84L87.407 13.3L92.687 20H90.327ZM103.162 20.12C102.096 20.12 101.269 19.8333 100.682 19.26C100.096 18.6867 99.8023 17.8667 99.8023 16.8V7.08H101.722V16.72C101.722 17.2933 101.862 17.7333 102.142 18.04C102.436 18.3467 102.849 18.5 103.382 18.5C103.982 18.5 104.482 18.3333 104.882 18L105.482 19.38C105.189 19.6333 104.836 19.82 104.422 19.94C104.022 20.06 103.602 20.12 103.162 20.12ZM98.0023 10.98V9.4H104.762V10.98H98.0023ZM111.792 20.12C110.725 20.12 109.779 19.8867 108.952 19.42C108.125 18.9533 107.472 18.3133 106.992 17.5C106.512 16.6733 106.272 15.74 106.272 14.7C106.272 13.6467 106.512 12.7133 106.992 11.9C107.472 11.0867 108.125 10.4533 108.952 10C109.779 9.53333 110.725 9.3 111.792 9.3C112.845 9.3 113.785 9.53333 114.612 10C115.452 10.4533 116.105 11.0867 116.572 11.9C117.052 12.7 117.292 13.6333 117.292 14.7C117.292 15.7533 117.052 16.6867 116.572 17.5C116.105 18.3133 115.452 18.9533 114.612 19.42C113.785 19.8867 112.845 20.12 111.792 20.12ZM111.792 18.44C112.472 18.44 113.079 18.2867 113.612 17.98C114.159 17.6733 114.585 17.24 114.892 16.68C115.199 16.1067 115.352 15.4467 115.352 14.7C115.352 13.94 115.199 13.2867 114.892 12.74C114.585 12.18 114.159 11.7467 113.612 11.44C113.079 11.1333 112.472 10.98 111.792 10.98C111.112 10.98 110.505 11.1333 109.972 11.44C109.439 11.7467 109.012 12.18 108.692 12.74C108.372 13.2867 108.212 13.94 108.212 14.7C108.212 15.4467 108.372 16.1067 108.692 16.68C109.012 17.24 109.439 17.6733 109.972 17.98C110.505 18.2867 111.112 18.44 111.792 18.44ZM124.918 20V9.4H126.758V12.28L126.578 11.56C126.872 10.8267 127.365 10.2667 128.058 9.88C128.752 9.49333 129.605 9.3 130.618 9.3V11.16C130.538 11.1467 130.458 11.14 130.378 11.14C130.312 11.14 130.245 11.14 130.178 11.14C129.152 11.14 128.338 11.4467 127.738 12.06C127.138 12.6733 126.838 13.56 126.838 14.72V20H124.918ZM138.584 20V17.76L138.484 17.34V13.52C138.484 12.7067 138.244 12.08 137.764 11.64C137.297 11.1867 136.59 10.96 135.644 10.96C135.017 10.96 134.404 11.0667 133.804 11.28C133.204 11.48 132.697 11.7533 132.284 12.1L131.484 10.66C132.03 10.22 132.684 9.88667 133.444 9.66C134.217 9.42 135.024 9.3 135.864 9.3C137.317 9.3 138.437 9.65333 139.224 10.36C140.01 11.0667 140.404 12.1467 140.404 13.6V20H138.584ZM135.104 20.12C134.317 20.12 133.624 19.9867 133.024 19.72C132.437 19.4533 131.984 19.0867 131.664 18.62C131.344 18.14 131.184 17.6 131.184 17C131.184 16.4267 131.317 15.9067 131.584 15.44C131.864 14.9733 132.31 14.6 132.924 14.32C133.55 14.04 134.39 13.9 135.444 13.9H138.804V15.28H135.524C134.564 15.28 133.917 15.44 133.584 15.76C133.25 16.08 133.084 16.4667 133.084 16.92C133.084 17.44 133.29 17.86 133.704 18.18C134.117 18.4867 134.69 18.64 135.424 18.64C136.144 18.64 136.77 18.48 137.304 18.16C137.85 17.84 138.244 17.3733 138.484 16.76L138.864 18.08C138.61 18.7067 138.164 19.2067 137.524 19.58C136.884 19.94 136.077 20.12 135.104 20.12ZM157.017 9.3C157.87 9.3 158.623 9.46667 159.277 9.8C159.93 10.1333 160.437 10.64 160.797 11.32C161.17 12 161.357 12.86 161.357 13.9V20H159.437V14.12C159.437 13.0933 159.197 12.32 158.717 11.8C158.237 11.28 157.563 11.02 156.697 11.02C156.057 11.02 155.497 11.1533 155.017 11.42C154.537 11.6867 154.163 12.08 153.897 12.6C153.643 13.12 153.517 13.7667 153.517 14.54V20H151.597V14.12C151.597 13.0933 151.357 12.32 150.877 11.8C150.41 11.28 149.737 11.02 148.857 11.02C148.23 11.02 147.677 11.1533 147.197 11.42C146.717 11.6867 146.343 12.08 146.077 12.6C145.81 13.12 145.677 13.7667 145.677 14.54V20H143.757V9.4H145.597V12.22L145.297 11.5C145.63 10.8067 146.143 10.2667 146.837 9.88C147.53 9.49333 148.337 9.3 149.257 9.3C150.27 9.3 151.143 9.55333 151.877 10.06C152.61 10.5533 153.09 11.3067 153.317 12.32L152.537 12C152.857 11.1867 153.417 10.5333 154.217 10.04C155.017 9.54667 155.95 9.3 157.017 9.3ZM170.31 20.12C169.43 20.12 168.623 19.92 167.89 19.52C167.17 19.1067 166.59 18.5 166.15 17.7C165.723 16.9 165.51 15.9 165.51 14.7C165.51 13.5 165.716 12.5 166.13 11.7C166.556 10.9 167.13 10.3 167.85 9.9C168.583 9.5 169.403 9.3 170.31 9.3C171.35 9.3 172.27 9.52667 173.07 9.98C173.87 10.4333 174.503 11.0667 174.97 11.88C175.436 12.68 175.67 13.62 175.67 14.7C175.67 15.78 175.436 16.7267 174.97 17.54C174.503 18.3533 173.87 18.9867 173.07 19.44C172.27 19.8933 171.35 20.12 170.31 20.12ZM164.69 23.88V9.4H166.53V12.26L166.41 14.72L166.61 17.18V23.88H164.69ZM170.15 18.44C170.83 18.44 171.436 18.2867 171.97 17.98C172.516 17.6733 172.943 17.24 173.25 16.68C173.57 16.1067 173.73 15.4467 173.73 14.7C173.73 13.94 173.57 13.2867 173.25 12.74C172.943 12.18 172.516 11.7467 171.97 11.44C171.436 11.1333 170.83 10.98 170.15 10.98C169.483 10.98 168.876 11.1333 168.33 11.44C167.796 11.7467 167.37 12.18 167.05 12.74C166.743 13.2867 166.59 13.94 166.59 14.7C166.59 15.4467 166.743 16.1067 167.05 16.68C167.37 17.24 167.796 17.6733 168.33 17.98C168.876 18.2867 169.483 18.44 170.15 18.44Z" fill="#14BCB2"/>
</svg>
