<svg width="199" height="26" viewBox="0 0 199 26" fill="none" xmlns="http://www.w3.org/2000/svg">
<path opacity="0.2" d="M21 13C21 14.78 20.4722 16.5201 19.4832 18.0001C18.4943 19.4802 17.0887 20.6337 15.4442 21.3149C13.7996 21.9961 11.99 22.1743 10.2442 21.8271C8.49836 21.4798 6.89472 20.6226 5.63604 19.364C4.37737 18.1053 3.5202 16.5016 3.17294 14.7558C2.82567 13.01 3.0039 11.2004 3.68509 9.55585C4.36628 7.91131 5.51983 6.50571 6.99987 5.51677C8.47992 4.52784 10.22 4 12 4C14.387 4 16.6761 4.94821 18.364 6.63604C20.0518 8.32387 21 10.6131 21 13Z" fill="#0FF1F6"/>
<path d="M16.2806 10.2194C16.3504 10.289 16.4057 10.3717 16.4434 10.4628C16.4812 10.5538 16.5006 10.6514 16.5006 10.75C16.5006 10.8486 16.4812 10.9462 16.4434 11.0372C16.4057 11.1283 16.3504 11.211 16.2806 11.2806L11.0306 16.5306C10.961 16.6004 10.8783 16.6557 10.7872 16.6934C10.6962 16.7312 10.5986 16.7506 10.5 16.7506C10.4014 16.7506 10.3038 16.7312 10.2128 16.6934C10.1218 16.6557 10.039 16.6004 9.96938 16.5306L7.71938 14.2806C7.57865 14.1399 7.49959 13.949 7.49959 13.75C7.49959 13.551 7.57865 13.3601 7.71938 13.2194C7.86011 13.0786 8.05098 12.9996 8.25 12.9996C8.44903 12.9996 8.6399 13.0786 8.78063 13.2194L10.5 14.9397L15.2194 10.2194C15.289 10.1496 15.3718 10.0943 15.4628 10.0566C15.5538 10.0188 15.6514 9.99941 15.75 9.99941C15.8486 9.99941 15.9462 10.0188 16.0372 10.0566C16.1283 10.0943 16.211 10.1496 16.2806 10.2194ZM21.75 13C21.75 14.9284 21.1782 16.8134 20.1068 18.4168C19.0355 20.0202 17.5127 21.2699 15.7312 22.0078C13.9496 22.7458 11.9892 22.9389 10.0979 22.5627C8.20656 22.1865 6.46928 21.2579 5.10571 19.8943C3.74215 18.5307 2.81355 16.7934 2.43735 14.9021C2.06114 13.0108 2.25422 11.0504 2.99218 9.26884C3.73013 7.48726 4.97982 5.96452 6.58319 4.89317C8.18657 3.82183 10.0716 3.25 12 3.25C14.585 3.25273 17.0634 4.28084 18.8913 6.10872C20.7192 7.93661 21.7473 10.415 21.75 13ZM20.25 13C20.25 11.3683 19.7662 9.77325 18.8596 8.41655C17.9531 7.05984 16.6646 6.00242 15.1571 5.37799C13.6497 4.75357 11.9909 4.59019 10.3905 4.90852C8.79017 5.22685 7.32016 6.01259 6.16637 7.16637C5.01259 8.32015 4.22685 9.79016 3.90853 11.3905C3.5902 12.9908 3.75358 14.6496 4.378 16.1571C5.00242 17.6646 6.05984 18.9531 7.41655 19.8596C8.77326 20.7661 10.3683 21.25 12 21.25C14.1873 21.2475 16.2843 20.3775 17.8309 18.8309C19.3775 17.2843 20.2475 15.1873 20.25 13Z" fill="#0FF1F6"/>
<path d="M37.92 12.04H45.12V13.74H37.92V12.04ZM38.1 18.26H46.26V20H36.1V6H45.98V7.74H38.1V18.26ZM55.4617 20V17.76L55.3617 17.34V13.52C55.3617 12.7067 55.1217 12.08 54.6417 11.64C54.1751 11.1867 53.4684 10.96 52.5217 10.96C51.8951 10.96 51.2817 11.0667 50.6817 11.28C50.0817 11.48 49.5751 11.7533 49.1617 12.1L48.3617 10.66C48.9084 10.22 49.5617 9.88667 50.3217 9.66C51.0951 9.42 51.9017 9.3 52.7417 9.3C54.1951 9.3 55.3151 9.65333 56.1017 10.36C56.8884 11.0667 57.2817 12.1467 57.2817 13.6V20H55.4617ZM51.9817 20.12C51.1951 20.12 50.5017 19.9867 49.9017 19.72C49.3151 19.4533 48.8617 19.0867 48.5417 18.62C48.2217 18.14 48.0617 17.6 48.0617 17C48.0617 16.4267 48.1951 15.9067 48.4617 15.44C48.7417 14.9733 49.1884 14.6 49.8017 14.32C50.4284 14.04 51.2684 13.9 52.3217 13.9H55.6817V15.28H52.4017C51.4417 15.28 50.7951 15.44 50.4617 15.76C50.1284 16.08 49.9617 16.4667 49.9617 16.92C49.9617 17.44 50.1684 17.86 50.5817 18.18C50.9951 18.4867 51.5684 18.64 52.3017 18.64C53.0217 18.64 53.6484 18.48 54.1817 18.16C54.7284 17.84 55.1217 17.3733 55.3617 16.76L55.7417 18.08C55.4884 18.7067 55.0417 19.2067 54.4017 19.58C53.7617 19.94 52.9551 20.12 51.9817 20.12ZM63.6748 20.12C62.7948 20.12 61.9548 20 61.1548 19.76C60.3682 19.52 59.7482 19.2267 59.2948 18.88L60.0948 17.36C60.5482 17.6667 61.1082 17.9267 61.7748 18.14C62.4415 18.3533 63.1215 18.46 63.8148 18.46C64.7082 18.46 65.3482 18.3333 65.7348 18.08C66.1348 17.8267 66.3348 17.4733 66.3348 17.02C66.3348 16.6867 66.2148 16.4267 65.9748 16.24C65.7348 16.0533 65.4148 15.9133 65.0148 15.82C64.6282 15.7267 64.1948 15.6467 63.7148 15.58C63.2348 15.5 62.7548 15.4067 62.2748 15.3C61.7948 15.18 61.3548 15.02 60.9548 14.82C60.5548 14.6067 60.2348 14.32 59.9948 13.96C59.7548 13.5867 59.6348 13.0933 59.6348 12.48C59.6348 11.84 59.8148 11.28 60.1748 10.8C60.5348 10.32 61.0415 9.95333 61.6948 9.7C62.3615 9.43333 63.1482 9.3 64.0548 9.3C64.7482 9.3 65.4482 9.38667 66.1548 9.56C66.8748 9.72 67.4615 9.95333 67.9148 10.26L67.0948 11.78C66.6148 11.46 66.1148 11.24 65.5948 11.12C65.0748 11 64.5548 10.94 64.0348 10.94C63.1948 10.94 62.5682 11.08 62.1548 11.36C61.7415 11.6267 61.5348 11.9733 61.5348 12.4C61.5348 12.76 61.6548 13.04 61.8948 13.24C62.1482 13.4267 62.4682 13.5733 62.8548 13.68C63.2548 13.7867 63.6948 13.88 64.1748 13.96C64.6548 14.0267 65.1348 14.12 65.6148 14.24C66.0948 14.3467 66.5282 14.5 66.9148 14.7C67.3148 14.9 67.6348 15.18 67.8748 15.54C68.1282 15.9 68.2548 16.38 68.2548 16.98C68.2548 17.62 68.0682 18.1733 67.6948 18.64C67.3215 19.1067 66.7948 19.4733 66.1148 19.74C65.4348 19.9933 64.6215 20.12 63.6748 20.12ZM70.7191 24C70.2124 24 69.7191 23.9133 69.2391 23.74C68.7591 23.58 68.3457 23.34 67.9991 23.02L68.8191 21.58C69.0857 21.8333 69.3791 22.0267 69.6991 22.16C70.0191 22.2933 70.3591 22.36 70.7191 22.36C71.1857 22.36 71.5724 22.24 71.8791 22C72.1857 21.76 72.4724 21.3333 72.7391 20.72L73.3991 19.26L73.5991 19.02L77.7591 9.4H79.6391L74.4991 21.06C74.1924 21.8067 73.8457 22.3933 73.4591 22.82C73.0857 23.2467 72.6724 23.5467 72.2191 23.72C71.7657 23.9067 71.2657 24 70.7191 24ZM73.2391 20.34L68.3991 9.4H70.3991L74.5191 18.84L73.2391 20.34ZM90.042 20.12C88.9754 20.12 88.1487 19.8333 87.562 19.26C86.9754 18.6867 86.682 17.8667 86.682 16.8V7.08H88.602V16.72C88.602 17.2933 88.742 17.7333 89.022 18.04C89.3154 18.3467 89.7287 18.5 90.262 18.5C90.862 18.5 91.362 18.3333 91.762 18L92.362 19.38C92.0687 19.6333 91.7154 19.82 91.302 19.94C90.902 20.06 90.482 20.12 90.042 20.12ZM84.882 10.98V9.4H91.642V10.98H84.882ZM98.6717 20.12C97.6051 20.12 96.6584 19.8867 95.8317 19.42C95.0051 18.9533 94.3517 18.3133 93.8717 17.5C93.3917 16.6733 93.1517 15.74 93.1517 14.7C93.1517 13.6467 93.3917 12.7133 93.8717 11.9C94.3517 11.0867 95.0051 10.4533 95.8317 10C96.6584 9.53333 97.6051 9.3 98.6717 9.3C99.7251 9.3 100.665 9.53333 101.492 10C102.332 10.4533 102.985 11.0867 103.452 11.9C103.932 12.7 104.172 13.6333 104.172 14.7C104.172 15.7533 103.932 16.6867 103.452 17.5C102.985 18.3133 102.332 18.9533 101.492 19.42C100.665 19.8867 99.7251 20.12 98.6717 20.12ZM98.6717 18.44C99.3517 18.44 99.9584 18.2867 100.492 17.98C101.038 17.6733 101.465 17.24 101.772 16.68C102.078 16.1067 102.232 15.4467 102.232 14.7C102.232 13.94 102.078 13.2867 101.772 12.74C101.465 12.18 101.038 11.7467 100.492 11.44C99.9584 11.1333 99.3517 10.98 98.6717 10.98C97.9917 10.98 97.3851 11.1333 96.8517 11.44C96.3184 11.7467 95.8917 12.18 95.5717 12.74C95.2517 13.2867 95.0917 13.94 95.0917 14.7C95.0917 15.4467 95.2517 16.1067 95.5717 16.68C95.8917 17.24 96.3184 17.6733 96.8517 17.98C97.3851 18.2867 97.9917 18.44 98.6717 18.44ZM116.338 20.12C115.271 20.12 114.325 19.8867 113.498 19.42C112.671 18.9533 112.018 18.3133 111.538 17.5C111.058 16.6733 110.818 15.74 110.818 14.7C110.818 13.6467 111.058 12.7133 111.538 11.9C112.018 11.0867 112.671 10.4533 113.498 10C114.325 9.53333 115.271 9.3 116.338 9.3C117.391 9.3 118.331 9.53333 119.158 10C119.998 10.4533 120.651 11.0867 121.118 11.9C121.598 12.7 121.838 13.6333 121.838 14.7C121.838 15.7533 121.598 16.6867 121.118 17.5C120.651 18.3133 119.998 18.9533 119.158 19.42C118.331 19.8867 117.391 20.12 116.338 20.12ZM116.338 18.44C117.018 18.44 117.625 18.2867 118.158 17.98C118.705 17.6733 119.131 17.24 119.438 16.68C119.745 16.1067 119.898 15.4467 119.898 14.7C119.898 13.94 119.745 13.2867 119.438 12.74C119.131 12.18 118.705 11.7467 118.158 11.44C117.625 11.1333 117.018 10.98 116.338 10.98C115.658 10.98 115.051 11.1333 114.518 11.44C113.985 11.7467 113.558 12.18 113.238 12.74C112.918 13.2867 112.758 13.94 112.758 14.7C112.758 15.4467 112.918 16.1067 113.238 16.68C113.558 17.24 113.985 17.6733 114.518 17.98C115.051 18.2867 115.658 18.44 116.338 18.44ZM129.913 20.12C129.033 20.12 128.227 19.92 127.493 19.52C126.773 19.1067 126.193 18.5 125.753 17.7C125.327 16.9 125.113 15.9 125.113 14.7C125.113 13.5 125.32 12.5 125.733 11.7C126.16 10.9 126.733 10.3 127.453 9.9C128.187 9.5 129.007 9.3 129.913 9.3C130.953 9.3 131.873 9.52667 132.673 9.98C133.473 10.4333 134.107 11.0667 134.573 11.88C135.04 12.68 135.273 13.62 135.273 14.7C135.273 15.78 135.04 16.7267 134.573 17.54C134.107 18.3533 133.473 18.9867 132.673 19.44C131.873 19.8933 130.953 20.12 129.913 20.12ZM124.293 23.88V9.4H126.133V12.26L126.013 14.72L126.213 17.18V23.88H124.293ZM129.753 18.44C130.433 18.44 131.04 18.2867 131.573 17.98C132.12 17.6733 132.547 17.24 132.853 16.68C133.173 16.1067 133.333 15.4467 133.333 14.7C133.333 13.94 133.173 13.2867 132.853 12.74C132.547 12.18 132.12 11.7467 131.573 11.44C131.04 11.1333 130.433 10.98 129.753 10.98C129.087 10.98 128.48 11.1333 127.933 11.44C127.4 11.7467 126.973 12.18 126.653 12.74C126.347 13.2867 126.193 13.94 126.193 14.7C126.193 15.4467 126.347 16.1067 126.653 16.68C126.973 17.24 127.4 17.6733 127.933 17.98C128.48 18.2867 129.087 18.44 129.753 18.44ZM141.366 20.12C140.3 20.12 139.473 19.8333 138.886 19.26C138.3 18.6867 138.006 17.8667 138.006 16.8V7.08H139.926V16.72C139.926 17.2933 140.066 17.7333 140.346 18.04C140.64 18.3467 141.053 18.5 141.586 18.5C142.186 18.5 142.686 18.3333 143.086 18L143.686 19.38C143.393 19.6333 143.04 19.82 142.626 19.94C142.226 20.06 141.806 20.12 141.366 20.12ZM136.206 10.98V9.4H142.966V10.98H136.206ZM145.808 20V9.4H147.728V20H145.808ZM146.768 7.36C146.394 7.36 146.081 7.24 145.828 7C145.588 6.76 145.468 6.46667 145.468 6.12C145.468 5.76 145.588 5.46 145.828 5.22C146.081 4.98 146.394 4.86 146.768 4.86C147.141 4.86 147.448 4.98 147.688 5.22C147.941 5.44667 148.068 5.73333 148.068 6.08C148.068 6.44 147.948 6.74667 147.708 7C147.468 7.24 147.154 7.36 146.768 7.36ZM164.453 9.3C165.307 9.3 166.06 9.46667 166.713 9.8C167.367 10.1333 167.873 10.64 168.233 11.32C168.607 12 168.793 12.86 168.793 13.9V20H166.873V14.12C166.873 13.0933 166.633 12.32 166.153 11.8C165.673 11.28 165 11.02 164.133 11.02C163.493 11.02 162.933 11.1533 162.453 11.42C161.973 11.6867 161.6 12.08 161.333 12.6C161.08 13.12 160.953 13.7667 160.953 14.54V20H159.033V14.12C159.033 13.0933 158.793 12.32 158.313 11.8C157.847 11.28 157.173 11.02 156.293 11.02C155.667 11.02 155.113 11.1533 154.633 11.42C154.153 11.6867 153.78 12.08 153.513 12.6C153.247 13.12 153.113 13.7667 153.113 14.54V20H151.193V9.4H153.033V12.22L152.733 11.5C153.067 10.8067 153.58 10.2667 154.273 9.88C154.967 9.49333 155.773 9.3 156.693 9.3C157.707 9.3 158.58 9.55333 159.313 10.06C160.047 10.5533 160.527 11.3067 160.753 12.32L159.973 12C160.293 11.1867 160.853 10.5333 161.653 10.04C162.453 9.54667 163.387 9.3 164.453 9.3ZM172.126 20V9.4H174.046V20H172.126ZM173.086 7.36C172.713 7.36 172.4 7.24 172.146 7C171.906 6.76 171.786 6.46667 171.786 6.12C171.786 5.76 171.906 5.46 172.146 5.22C172.4 4.98 172.713 4.86 173.086 4.86C173.46 4.86 173.766 4.98 174.006 5.22C174.26 5.44667 174.386 5.73333 174.386 6.08C174.386 6.44 174.266 6.74667 174.026 7C173.786 7.24 173.473 7.36 173.086 7.36ZM176.492 20V18.76L183.292 10.32L183.672 10.98H176.612V9.4H185.212V10.66L178.412 19.08L177.972 18.42H185.372V20H176.492ZM192.306 20.12C191.172 20.12 190.172 19.8867 189.306 19.42C188.452 18.9533 187.786 18.3133 187.306 17.5C186.839 16.6867 186.606 15.7533 186.606 14.7C186.606 13.6467 186.832 12.7133 187.286 11.9C187.752 11.0867 188.386 10.4533 189.186 10C189.999 9.53333 190.912 9.3 191.926 9.3C192.952 9.3 193.859 9.52667 194.646 9.98C195.432 10.4333 196.046 11.0733 196.486 11.9C196.939 12.7133 197.166 13.6667 197.166 14.76C197.166 14.84 197.159 14.9333 197.146 15.04C197.146 15.1467 197.139 15.2467 197.126 15.34H188.106V13.96H196.126L195.346 14.44C195.359 13.76 195.219 13.1533 194.926 12.62C194.632 12.0867 194.226 11.6733 193.706 11.38C193.199 11.0733 192.606 10.92 191.926 10.92C191.259 10.92 190.666 11.0733 190.146 11.38C189.626 11.6733 189.219 12.0933 188.926 12.64C188.632 13.1733 188.486 13.7867 188.486 14.48V14.8C188.486 15.5067 188.646 16.14 188.966 16.7C189.299 17.2467 189.759 17.6733 190.346 17.98C190.932 18.2867 191.606 18.44 192.366 18.44C192.992 18.44 193.559 18.3333 194.066 18.12C194.586 17.9067 195.039 17.5867 195.426 17.16L196.486 18.4C196.006 18.96 195.406 19.3867 194.686 19.68C193.979 19.9733 193.186 20.12 192.306 20.12Z" fill="#14BCB2"/>
</svg>
